{
  "accessors": [
    {
      "bufferView": 2,
      "componentType": 5126,
      "count": 9045,
      "max": [
        4.312920093536377,
        1.0994600057601929,
        1.0334700345993042
      ],
      "min": [
        -4.312920093536377,
        -1.0994600057601929,
        0.5212900042533875
      ],
      "type": "VEC3"
    },
    {
      "bufferView": 2,
      "byteOffset": 108540,
      "componentType": 5126,
      "count": 9045,
      "type": "VEC3"
    },
    {
      "bufferView": 1,
      "componentType": 5126,
      "count": 9045,
      "type": "VEC2"
    },
    {
      "bufferView": 0,
      "componentType": 5125,
      "count": 44544,
      "type": "SCALAR"
    },
    {
      "bufferView": 2,
      "byteOffset": 217080,
      "componentType": 5126,
      "count": 4297,
      "max": [
        4.27800989151001,
        1.0937299728393555,
        1.0335999727249146
      ],
      "min": [
        -4.27800989151001,
        -1.0937299728393555,
        0.6159399747848511
      ],
      "type": "VEC3"
    },
    {
      "bufferView": 2,
      "byteOffset": 268644,
      "componentType": 5126,
      "count": 4297,
      "type": "VEC3"
    },
    {
      "bufferView": 1,
      "byteOffset": 72360,
      "componentType": 5126,
      "count": 4297,
      "type": "VEC2"
    },
    {
      "bufferView": 0,
      "byteOffset": 178176,
      "componentType": 5125,
      "count": 24576,
      "type": "SCALAR"
    },
    {
      "bufferView": 2,
      "byteOffset": 320208,
      "componentType": 5126,
      "count": 5960,
      "max": [
        2.55007004737854,
        0.25262001156806946,
        0.6251099705696106
      ],
      "min": [
        -2.5492401123046875,
        -0.25224000215530396,
        0.5041300058364868
      ],
      "type": "VEC3"
    },
    {
      "bufferView": 2,
      "byteOffset": 391728,
      "componentType": 5126,
      "count": 5960,
      "type": "VEC3"
    },
    {
      "bufferView": 0,
      "byteOffset": 276480,
      "componentType": 5125,
      "count": 17664,
      "type": "SCALAR"
    },
    {
      "bufferView": 2,
      "byteOffset": 463248,
      "componentType": 5126,
      "count": 65532,
      "max": [
        2.612839937210083,
        1.1077100038528442,
        0.5535299777984619
      ],
      "min": [
        -2.4171600341796875,
        -1.092579960823059,
        -0.1386300027370453
      ],
      "type": "VEC3"
    },
    {
      "bufferView": 2,
      "byteOffset": 1249632,
      "componentType": 5126,
      "count": 65532,
      "type": "VEC3"
    },
    {
      "bufferView": 1,
      "byteOffset": 106736,
      "componentType": 5126,
      "count": 65532,
      "type": "VEC2"
    },
    {
      "bufferView": 0,
      "byteOffset": 347136,
      "componentType": 5125,
      "count": 320073,
      "type": "SCALAR"
    },
    {
      "bufferView": 2,
      "byteOffset": 2036016,
      "componentType": 5126,
      "count": 38400,
      "max": [
        -1.7001500129699707,
        1.1071100234985352,
        0.5535299777984619
      ],
      "min": [
        -2.612839937210083,
        -1.092579960823059,
        -0.13776999711990356
      ],
      "type": "VEC3"
    },
    {
      "bufferView": 2,
      "byteOffset": 2496816,
      "componentType": 5126,
      "count": 38400,
      "type": "VEC3"
    },
    {
      "bufferView": 1,
      "byteOffset": 630992,
      "componentType": 5126,
      "count": 38400,
      "type": "VEC2"
    },
    {
      "bufferView": 0,
      "byteOffset": 1627428,
      "componentType": 5125,
      "count": 193743,
      "type": "SCALAR"
    },
    {
      "bufferView": 2,
      "byteOffset": 2957616,
      "componentType": 5126,
      "count": 1730,
      "max": [
        2.1376099586486816,
        0.14371000230312347,
        0.31815001368522644
      ],
      "min": [
        -2.1376099586486816,
        -0.1421000063419342,
        -0.04698000103235245
      ],
      "type": "VEC3"
    },
    {
      "bufferView": 2,
      "byteOffset": 2978376,
      "componentType": 5126,
      "count": 1730,
      "type": "VEC3"
    },
    {
      "bufferView": 1,
      "byteOffset": 938192,
      "componentType": 5126,
      "count": 1730,
      "type": "VEC2"
    },
    {
      "bufferView": 0,
      "byteOffset": 2402400,
      "componentType": 5125,
      "count": 9360,
      "type": "SCALAR"
    },
    {
      "bufferView": 2,
      "byteOffset": 2999136,
      "componentType": 5126,
      "count": 65532,
      "max": [
        2.503700017929077,
        1.0808700323104858,
        0.39858999848365784
      ],
      "min": [
        -2.503700017929077,
        -1.065119981765747,
        -0.20454999804496765
      ],
      "type": "VEC3"
    },
    {
      "bufferView": 2,
      "byteOffset": 3785520,
      "componentType": 5126,
      "count": 65532,
      "type": "VEC3"
    },
    {
      "bufferView": 1,
      "byteOffset": 952032,
      "componentType": 5126,
      "count": 65532,
      "type": "VEC2"
    },
    {
      "bufferView": 0,
      "byteOffset": 2439840,
      "componentType": 5125,
      "count": 191622,
      "type": "SCALAR"
    },
    {
      "bufferView": 2,
      "byteOffset": 4571904,
      "componentType": 5126,
      "count": 47154,
      "max": [
        2.503700017929077,
        1.0808700323104858,
        0.39858999848365784
      ],
      "min": [
        -2.5029098987579346,
        -1.065119981765747,
        -0.20454999804496765
      ],
      "type": "VEC3"
    },
    {
      "bufferView": 2,
      "byteOffset": 5137752,
      "componentType": 5126,
      "count": 47154,
      "type": "VEC3"
    },
    {
      "bufferView": 1,
      "byteOffset": 1476288,
      "componentType": 5126,
      "count": 47154,
      "type": "VEC2"
    },
    {
      "bufferView": 0,
      "byteOffset": 3206328,
      "componentType": 5125,
      "count": 137082,
      "type": "SCALAR"
    }
  ],
  "asset": {
    "generator": "fab-model-conversion",
    "version": "2.0"
  },
  "bufferViews": [
    {
      "buffer": 0,
      "byteLength": 3754656,
      "target": 34963
    },
    {
      "buffer": 0,
      "byteLength": 1853520,
      "byteOffset": 3754656,
      "byteStride": 8,
      "target": 34962
    },
    {
      "buffer": 0,
      "byteLength": 5703600,
      "byteOffset": 5608176,
      "byteStride": 12,
      "target": 34962
    }
  ],
  "buffers": [
    {
      "byteLength": 11311776,
      "uri": "scene.bin"
    }
  ],
  "extensionsUsed": [
    "KHR_materials_specular"
  ],
  "images": [
    {
      "uri": "textures/Wood_baseColor.png"
    }
  ],
  "materials": [
    {
      "doubleSided": true,
      "name": "Wood",
      "pbrMetallicRoughness": {
        "baseColorTexture": {
          "index": 0
        },
        "metallicFactor": 0.4468368902,
        "roughnessFactor": 0.3065929878
      }
    },
    {
      "doubleSided": true,
      "name": "material",
      "pbrMetallicRoughness": {
        "baseColorFactor": [
          0.0370971093,
          0.0370971093,
          0.0370971093,
          1.0
        ],
        "roughnessFactor": 0.6114710366
      }
    },
    {
      "doubleSided": true,
      "name": "Metal_Silver",
      "pbrMetallicRoughness": {
        "roughnessFactor": 0.1053734756
      }
    },
    {
      "doubleSided": true,
      "name": "Plastic_Black",
      "pbrMetallicRoughness": {
        "roughnessFactor": 0.1000000015
      }
    },
    {
      "doubleSided": true,
      "extensions": {
        "KHR_materials_specular": {
          "specularFactor": 1
        }
      },
      "name": "Plastic_White",
      "pbrMetallicRoughness": {
        "metallicFactor": 0.0,
        "roughnessFactor": 0.3065929878
      }
    }
  ],
  "meshes": [
    {
      "name": "Skateboard_0",
      "primitives": [
        {
          "attributes": {
            "NORMAL": 1,
            "POSITION": 0,
            "TEXCOORD_0": 2
          },
          "indices": 3,
          "material": 0,
          "mode": 4
        }
      ]
    },
    {
      "name": "Skateboard_1",
      "primitives": [
        {
          "attributes": {
            "NORMAL": 5,
            "POSITION": 4,
            "TEXCOORD_0": 6
          },
          "indices": 7,
          "material": 1,
          "mode": 4
        }
      ]
    },
    {
      "name": "Skateboard2_0",
      "primitives": [
        {
          "attributes": {
            "NORMAL": 9,
            "POSITION": 8
          },
          "indices": 10,
          "material": 2,
          "mode": 4
        }
      ]
    },
    {
      "name": "Skateboard1_0",
      "primitives": [
        {
          "attributes": {
            "NORMAL": 12,
            "POSITION": 11,
            "TEXCOORD_0": 13
          },
          "indices": 14,
          "material": 2,
          "mode": 4
        }
      ]
    },
    {
      "name": "Skateboard1_0",
      "primitives": [
        {
          "attributes": {
            "NORMAL": 16,
            "POSITION": 15,
            "TEXCOORD_0": 17
          },
          "indices": 18,
          "material": 2,
          "mode": 4
        }
      ]
    },
    {
      "name": "Skateboard1_1",
      "primitives": [
        {
          "attributes": {
            "NORMAL": 20,
            "POSITION": 19,
            "TEXCOORD_0": 21
          },
          "indices": 22,
          "material": 3,
          "mode": 4
        }
      ]
    },
    {
      "name": "Skateboard1_2",
      "primitives": [
        {
          "attributes": {
            "NORMAL": 24,
            "POSITION": 23,
            "TEXCOORD_0": 25
          },
          "indices": 26,
          "material": 4,
          "mode": 4
        }
      ]
    },
    {
      "name": "Skateboard1_2",
      "primitives": [
        {
          "attributes": {
            "NORMAL": 28,
            "POSITION": 27,
            "TEXCOORD_0": 29
          },
          "indices": 30,
          "material": 4,
          "mode": 4
        }
      ]
    }
  ],
  "nodes": [
    {
      "children": [
        1
      ],
      "matrix": [
        1.0,
        0.0,
        0.0,
        0.0,
        0.0,
        2.220446049250313e-16,
        -1.0,
        0.0,
        0.0,
        1.0,
        2.220446049250313e-16,
        0.0,
        0.0,
        0.0,
        0.0,
        1.0
      ],
      "name": "Sketchfab_model"
    },
    {
      "children": [
        2
      ],
      "name": "Root"
    },
    {
      "children": [
        3,
        4,
        5,
        7
      ],
      "name": "Skateboard"
    },
    {
      "mesh": 0,
      "name": "Skateboard_0"
    },
    {
      "mesh": 1,
      "name": "Skateboard_1"
    },
    {
      "children": [
        6
      ],
      "name": "Skateboard2"
    },
    {
      "mesh": 2,
      "name": "Skateboard2_0"
    },
    {
      "children": [
        8,
        9,
        10,
        11,
        12
      ],
      "name": "Skateboard1"
    },
    {
      "mesh": 3,
      "name": "Skateboard1_0"
    },
    {
      "mesh": 4,
      "name": "Skateboard1_0"
    },
    {
      "mesh": 5,
      "name": "Skateboard1_1"
    },
    {
      "mesh": 6,
      "name": "Skateboard1_2"
    },
    {
      "mesh": 7,
      "name": "Skateboard1_2"
    }
  ],
  "samplers": [
    {
      "magFilter": 9729,
      "minFilter": 9987,
      "wrapS": 10497,
      "wrapT": 10497
    }
  ],
  "scene": 0,
  "scenes": [
    {
      "name": "Sketchfab_Scene",
      "nodes": [
        0
      ]
    }
  ],
  "textures": [
    {
      "sampler": 0,
      "source": 0
    }
  ]
}
